# # Blender 4.1.1
# # www.blender.org
# mtllib cube.mtl
# o Cube
# v 1.000000 1.000000 -1.000000
# v 1.000000 -1.000000 -1.000000
# v 1.000000 1.000000 1.000000
# v 1.000000 -1.000000 1.000000
# v -1.000000 1.000000 -1.000000
# v -1.000000 -1.000000 -1.000000
# v -1.000000 1.000000 1.000000
# v -1.000000 -1.000000 1.000000
# vn -0.0000 1.0000 -0.0000
# vn -0.0000 -0.0000 1.0000
# vn -1.0000 -0.0000 -0.0000
# vn -0.0000 -1.0000 -0.0000
# vn 1.0000 -0.0000 -0.0000
# vn -0.0000 -0.0000 -1.0000
# vt 0.625000 0.500000
# vt 0.875000 0.500000
# vt 0.875000 0.750000
# vt 0.625000 0.750000
# vt 0.375000 0.750000
# vt 0.625000 1.000000
# vt 0.375000 1.000000
# vt 0.375000 0.000000
# vt 0.625000 0.000000
# vt 0.625000 0.250000
# vt 0.375000 0.250000
# vt 0.125000 0.500000
# vt 0.375000 0.500000
# vt 0.125000 0.750000
# s 0
# usemtl Material
# f 1/1/1 5/2/1 7/3/1 3/4/1
# f 4/5/2 3/4/2 7/6/2 8/7/2
# f 8/8/3 7/9/3 5/10/3 6/11/3
# f 6/12/4 2/13/4 4/5/4 8/14/4
# f 2/13/5 1/1/5 3/4/5 4/5/5
# f 6/11/6 5/10/6 1/1/6 2/13/6




# Vertex positions
v -0.500000 -0.500000 0.500000
v 0.500000 -0.500000 0.500000
v 0.500000 0.500000 0.500000
v -0.500000 0.500000 0.500000
v -0.500000 -0.500000 -0.500000
v 0.500000 -0.500000 -0.500000
v 0.500000 0.500000 -0.500000
v -0.500000 0.500000 -0.500000

# Texture coordinates
vt 0.000000 0.000000
vt 1.000000 0.000000
vt 1.000000 1.000000
vt 0.000000 1.000000

# Vertex normals
vn 0.0000 0.0000 1.0000
vn 0.0000 0.0000 -1.0000
vn 0.0000 1.0000 0.0000
vn 0.0000 -1.0000 0.0000
vn 1.0000 0.0000 0.0000
vn -1.0000 0.0000 0.0000

o Cube
# Front face (+Z)
# v/vt/vn
f 1/1/1 2/2/1 3/3/1 4/4/1

# Back face (-Z)
# v/vt/vn
f 5/4/2 8/1/2 7/2/2 6/3/2

# Top face (+Y)
# v/vt/vn
f 4/1/3 3/2/3 7/3/3 8/4/3

# Bottom face (-Y)
# v/vt/vn
f 5/1/4 6/2/4 2/3/4 1/4/4

# Right face (+X)
# v/vt/vn
f 2/1/5 6/2/5 7/3/5 3/4/5

# Left face (-X)
# v/vt/vn
f 5/1/6 1/2/6 4/3/6 8/4/6
